<?xml version="1.0" standalone="no"?>
<!DOCTYPE svg PUBLIC "-//W3C//DTD SVG 20010904//EN"
 "http://www.w3.org/TR/2001/REC-SVG-20010904/DTD/svg10.dtd">
<svg version="1.0" xmlns="http://www.w3.org/2000/svg"
 width="2048.000000pt" height="2048.000000pt" viewBox="0 0 2048.000000 2048.000000"
 preserveAspectRatio="xMidYMid meet" style="">

<g transform="translate(0.000000,2048.000000) scale(0.100000,-0.100000)"
fill="#ffd930" stroke="#000000" stroke-width="20">
<path d="M7590 19344 c-150 -40 -246 -156 -299 -359 -41 -154 -36 -51 -171
-3495 -6 -151 -12 -381 -13 -510 -2 -202 1 -243 16 -292 41 -128 219 -307 434
-435 457 -272 1083 -354 1731 -228 453 88 905 290 1280 572 138 103 354 311
456 437 252 312 425 703 442 1001 l6 100 -57 45 c-31 25 -116 101 -189 170
-203 194 -640 580 -2526 2235 -163 144 -350 305 -416 360 -65 55 -174 152
-240 216 -131 126 -202 170 -303 189 -68 13 -84 12 -151 -6z"/>
<path d="M12565 18336 c-132 -32 -286 -149 -382 -289 -134 -193 -275 -466
-357 -687 -25 -69 -62 -168 -82 -220 -119 -314 -150 -435 -133 -525 6 -34 17
-57 36 -74 30 -26 20 -26 216 8 103 18 160 21 416 21 196 0 338 -5 421 -15
229 -26 443 -75 564 -129 l56 -25 9 37 c39 146 40 485 2 707 -81 473 -253 864
-481 1096 -62 64 -84 80 -129 93 -63 19 -87 19 -156 2z"/>
<path d="M17422 18180 c-126 -17 -206 -51 -467 -200 -179 -101 -518 -285 -875
-475 -429 -228 -1588 -860 -1880 -1025 -244 -137 -379 -219 -450 -272 -25 -18
-60 -38 -79 -43 -66 -20 -89 -81 -90 -241 -2 -178 35 -413 95 -613 322 -1067
1368 -1977 2495 -2172 233 -40 544 -42 748 -4 225 42 411 131 411 197 0 13 10
50 21 83 51 154 184 905 560 3165 116 701 123 759 122 1055 0 92 -5 123 -27
190 -72 214 -233 342 -451 358 -38 3 -99 1 -133 -3z m-1454 -1662 c34 -63 64
-128 139 -305 7 -18 10 -33 5 -33 -10 0 -178 343 -188 383 -10 44 2 32 44 -45z"/>
<path d="M11980 16239 c-118 -8 -207 -21 -271 -39 l-36 -10 -7 -73 c-4 -39
-15 -121 -26 -182 -10 -60 -21 -139 -25 -175 -39 -399 -269 -834 -631 -1195
-478 -478 -1134 -797 -1867 -907 -196 -30 -631 -32 -812 -4 -390 59 -730 199
-1000 410 -101 79 -288 260 -325 314 -19 29 -39 52 -43 52 -39 0 -430 -298
-607 -462 -254 -236 -427 -430 -684 -773 -136 -181 -150 -204 -151 -241 0 -35
8 -51 48 -100 238 -295 416 -695 506 -1142 176 -870 45 -1855 -349 -2632 -140
-274 -284 -481 -470 -674 -180 -185 -315 -286 -544 -407 -64 -34 -123 -71
-130 -83 -30 -47 -28 -124 8 -350 122 -747 330 -1377 675 -2051 618 -1206
1566 -2186 2747 -2841 861 -477 1812 -763 2854 -859 235 -22 781 -30 1025 -16
936 55 1814 279 2683 685 1260 588 2370 1567 3105 2736 1015 1615 1367 3440
1011 5240 -91 463 -233 927 -412 1350 -191 450 -505 999 -669 1167 -42 44 -57
53 -86 53 -19 0 -40 -7 -47 -15 -7 -9 -29 -15 -54 -15 -22 0 -62 -7 -88 -15
-289 -87 -724 -132 -1038 -106 -1286 107 -2369 1001 -2733 2256 -70 241 -134
636 -121 743 6 51 5 54 -29 86 -71 66 -469 209 -688 245 -123 21 -414 42 -539
39 -36 0 -117 -5 -180 -9z m316 -1224 c64 -19 113 -60 149 -126 26 -47 30 -64
30 -134 0 -90 -14 -126 -74 -188 -51 -54 -104 -79 -182 -85 -56 -4 -75 -1
-120 20 -106 49 -163 135 -164 248 0 107 47 196 122 231 113 51 160 58 239 34z
m-629 -2117 c46 -51 54 -96 27 -153 -29 -62 -102 -69 -149 -14 -31 38 -39 84
-23 134 14 41 32 52 94 54 20 1 38 -7 51 -21z m-2750 -288 c62 -38 91 -136 58
-200 -64 -125 -258 -3 -231 144 5 25 15 37 49 54 52 27 83 28 124 2z m4254
-95 c36 -19 47 -45 55 -135 7 -67 6 -71 -38 -157 -51 -98 -105 -236 -267 -679
-60 -165 -157 -426 -215 -582 -58 -155 -106 -297 -106 -316 0 -47 31 -82 91
-101 43 -14 60 -15 107 -6 74 14 479 135 1079 322 l482 150 33 -17 c51 -25 77
-54 88 -95 17 -61 1 -85 -77 -121 -38 -16 -75 -37 -84 -45 -9 -8 -338 -111
-730 -229 -393 -119 -810 -247 -927 -286 l-212 -70 -95 11 c-141 15 -171 42
-200 181 -14 67 -14 73 4 108 41 80 177 412 492 1197 227 565 336 826 352 838
57 47 117 58 168 32z m-6049 -217 c22 -6 59 -29 84 -51 159 -140 120 -419 -73
-513 -139 -69 -311 -4 -374 140 -31 69 -31 178 0 258 20 51 30 63 91 104 109
73 181 89 272 62z m9913 -447 c121 -55 225 -257 225 -435 0 -152 -61 -263
-150 -273 -115 -13 -236 106 -297 291 -21 66 -26 101 -27 190 -1 77 3 111 11
113 7 3 28 27 48 54 55 76 114 95 190 60z m616 -991 c61 -17 90 -91 60 -149
-17 -32 -68 -54 -109 -47 -89 14 -116 113 -50 184 24 24 45 27 99 12z m-8494
-316 c200 -42 391 -159 577 -355 467 -491 634 -1316 372 -1837 -141 -281 -369
-424 -651 -408 -125 6 -194 25 -320 85 -456 219 -800 759 -876 1375 -15 123
-6 392 16 496 25 115 65 232 90 260 12 14 38 50 57 80 111 176 289 293 484
319 80 10 150 6 251 -15z m6041 -646 c26 -13 104 -79 177 -149 72 -70 151
-137 176 -149 176 -90 525 -135 727 -94 42 8 164 45 271 80 106 36 203 64 213
62 11 -2 29 -19 41 -38 l20 -35 -21 -47 c-19 -44 -26 -50 -114 -92 -209 -100
-527 -156 -800 -140 -116 7 -116 7 -142 -19 -37 -38 -34 -78 10 -126 32 -36
38 -54 69 -192 86 -384 109 -595 109 -1004 0 -344 -10 -471 -60 -755 -304
-1712 -1625 -2985 -3307 -3190 -251 -30 -642 -30 -887 1 -792 100 -1513 407
-2154 918 -373 298 -695 654 -1010 1116 -49 72 -96 136 -104 143 -9 6 -33 12
-53 12 -55 0 -91 -37 -143 -143 -113 -237 -386 -587 -499 -640 -53 -25 -104
-32 -122 -17 -35 29 -6 106 52 137 34 18 224 221 321 342 115 144 244 456 309
750 20 89 27 160 33 306 4 105 12 202 18 216 6 14 24 31 40 38 25 11 34 10 55
-3 84 -56 144 -345 106 -516 -27 -124 -26 -126 27 -176 169 -155 670 -311
1224 -381 194 -25 791 -24 1010 0 560 63 1052 191 1569 409 1094 462 2030
1238 2678 2219 179 272 373 644 373 716 0 41 -30 76 -88 104 -98 47 -262 244
-262 316 0 14 9 25 28 31 42 16 61 14 110 -10z m-9036 -2077 c29 -32 50 -92
41 -119 -23 -75 -52 -102 -108 -102 -84 0 -145 101 -119 197 8 28 89 65 129
58 17 -3 42 -18 57 -34z"/>
<path d="M14239 5975 c-278 -44 -543 -171 -723 -348 -60 -58 -148 -183 -194
-274 l-21 -40 -148 -6 c-81 -4 -178 -13 -216 -21 -116 -26 -277 -85 -409 -152
-196 -100 -295 -202 -455 -472 -101 -168 -123 -217 -123 -272 0 -59 19 -84 77
-104 217 -75 696 -20 1139 129 610 206 1190 576 1487 947 109 136 177 295 180
417 l2 74 -95 53 c-78 44 -111 56 -184 69 -105 18 -200 18 -317 0z"/>
<path d="M4955 15216 c-163 -39 -220 -145 -195 -360 6 -56 25 -144 43 -196 34
-106 243 -531 340 -691 88 -147 253 -384 310 -443 l47 -51 28 34 c15 19 88
112 163 206 289 364 519 599 774 791 88 66 175 129 193 139 50 30 40 86 -30
152 -40 38 -197 137 -293 185 -214 108 -531 183 -960 228 -212 22 -345 24
-420 6z"/>
<path d="M5085 12938 c-673 -166 -1237 -318 -2198 -594 -218 -63 -578 -159
-800 -215 -473 -118 -521 -131 -777 -211 -260 -81 -440 -150 -509 -194 -117
-76 -133 -89 -195 -155 -162 -171 -196 -394 -102 -672 223 -661 1220 -1520
2626 -2263 102 -53 250 -132 330 -174 80 -42 242 -129 361 -193 119 -64 223
-117 231 -117 9 0 33 -8 54 -17 62 -27 207 -21 319 12 459 136 879 666 1135
1435 276 828 312 1767 95 2520 -86 300 -220 566 -379 753 -81 95 -105 106
-191 85z"/>
</g>
</svg>